<svg xmlns="http://www.w3.org/2000/svg" viewBox="0 0 1522.658483 1523.347578" role="img" aria-labelledby="title desc">
<title id="title">Grupo do Carro</title>
<desc id="desc">Logo original fornecida pelo Grupo do Carro, com fundo transparente.</desc>
<g transform="translate(-0.182225,1523.813181) scale(0.100000,-0.100000)"
fill="#ffffff" stroke="none">
<path d="M7410 15233 c-694 -43 -1219 -130 -1785 -297 -985 -290 -1900 -781
-2705 -1452 -776 -645 -1457 -1516 -1900 -2428 -420 -865 -648 -1715 -732
-2721 -16 -199 -16 -836 0 -1040 94 -1165 407 -2182 981 -3185 39 -68 71 -128
71 -134 0 -6 -39 -123 -86 -261 -91 -267 -129 -379 -278 -820 -52 -154 -178
-527 -281 -830 -102 -302 -199 -588 -215 -635 -49 -146 -354 -1046 -419 -1238
-35 -101 -61 -185 -59 -187 2 -2 102 28 223 66 121 39 292 93 380 121 88 27
192 60 230 73 39 13 144 47 235 75 194 61 330 104 535 170 83 27 224 72 315
100 91 29 203 64 250 80 47 15 132 42 190 60 58 18 150 47 205 65 55 18 174
56 265 84 91 29 183 58 205 66 22 7 121 39 220 70 99 31 191 60 205 65 14 5
106 34 205 66 99 31 205 64 235 74 30 10 94 30 142 46 l88 28 197 -100 c683
-345 1343 -569 2053 -698 86 -16 110 -19 365 -57 585 -85 1336 -87 1975 -4
320 42 361 49 640 110 689 149 1409 418 1996 745 910 508 1631 1116 2280 1925
302 375 651 935 869 1390 592 1239 830 2634 680 3990 -136 1222 -537 2313
-1234 3350 -388 577 -928 1165 -1471 1601 -225 181 -622 463 -805 571 -395
235 -824 450 -1125 565 -41 16 -84 32 -95 37 -46 19 -219 82 -350 126 -79 26
-272 84 -350 105 -44 11 -96 25 -115 30 -46 13 -266 65 -360 85 -290 62 -704
117 -1067 140 -213 13 -645 18 -803 8z m785 -1193 c241 -16 598 -63 800 -106
148 -31 433 -100 500 -121 522 -160 942 -337 1384 -585 460 -258 943 -630
1336 -1030 338 -343 520 -562 757 -913 80 -118 204 -318 244 -390 6 -11 34
-61 62 -111 133 -240 259 -516 367 -809 54 -147 81 -227 160 -486 49 -160 128
-524 164 -754 89 -578 88 -1289 -4 -1873 -32 -199 -112 -560 -160 -722 -135
-448 -241 -722 -415 -1075 -426 -861 -1052 -1617 -1820 -2199 -454 -345 -719
-499 -1365 -796 -126 -57 -523 -198 -705 -249 -41 -12 -88 -26 -105 -31 -30
-9 -170 -42 -368 -86 -197 -43 -503 -86 -782 -109 -182 -15 -831 -23 -887 -11
-13 3 -84 10 -158 16 -142 11 -404 43 -480 59 -25 5 -85 17 -135 26 -467 86
-930 227 -1355 412 -253 111 -793 401 -899 484 -13 11 -31 19 -41 19 -20 0
-289 -84 -1110 -347 -129 -41 -251 -79 -270 -85 -19 -5 -73 -22 -120 -38 -47
-15 -159 -51 -250 -80 -91 -28 -176 -55 -190 -60 -14 -5 -113 -36 -220 -70
-107 -34 -206 -66 -219 -71 -13 -5 -25 -8 -28 -6 -2 3 5 31 16 63 121 353 333
979 371 1094 27 80 117 345 200 590 83 245 160 473 171 508 l20 63 -29 37
c-47 60 -214 318 -323 499 -117 196 -304 570 -382 763 -245 604 -398 1257
-448 1910 -16 201 -16 702 -1 900 31 388 93 752 193 1126 291 1092 842 2042
1651 2845 277 276 651 578 980 792 165 107 219 140 410 245 63 35 396 202 402
202 2 0 47 20 100 45 53 25 99 45 102 45 3 0 20 6 37 14 175 80 532 199 817
272 463 119 842 173 1400 198 107 5 448 -3 625 -14z M5616 9755 c-41 -21 -53
-42 -65 -105 -5 -30 -21 -116 -34 -190 -36 -192 -87 -476 -97 -535 -5 -27 -18
-101 -30 -164 -27 -148 -27 -221 -1 -292 30 -79 80 -132 159 -171 l67 -33 475
0 c464 0 476 1 528 22 177 72 286 195 325 368 9 39 33 162 53 275 19 113 47
266 60 340 51 278 74 411 74 435 0 14 -11 32 -26 44 -24 19 -40 21 -176 21
-160 0 -200 -9 -226 -50 -12 -20 -33 -123 -87 -430 -13 -80 -31 -181 -40 -225
-8 -44 -26 -145 -40 -225 -16 -86 -33 -152 -42 -162 -15 -16 -44 -18 -333 -18
-275 0 -319 2 -330 16 -14 16 -20 -21 110 702 63 347 63 358 13 381 -38 18
-301 14 -337 -4z M9235 9760 c-138 -24 -260 -105 -337 -224 -45 -69 -60 -117
-87 -276 -11 -63 -36 -203 -56 -310 -54 -292 -58 -319 -53 -395 8 -119 66
-203 177 -257 l66 -33 515 0 c466 0 520 2 563 18 84 30 125 55 190 117 64 59
126 158 141 224 8 33 71 372 91 491 7 44 23 131 34 194 26 141 26 153 1 233
-27 87 -84 151 -170 192 l-65 31 -480 2 c-264 0 -502 -3 -530 -7z m780 -396
c16 -17 16 -19 -10 -164 -8 -41 -30 -169 -51 -285 -20 -115 -43 -220 -51 -232
l-13 -23 -355 0 c-412 0 -383 -8 -360 106 8 38 32 173 55 299 50 287 47 272
70 295 19 19 35 20 359 20 298 0 342 -2 356 -16z M2460 9737 c-164 -55 -289
-189 -329 -352 -12 -46 -54 -271 -86 -460 -7 -44 -18 -100 -23 -125 -25 -110
-34 -229 -22 -284 14 -69 60 -140 122 -186 88 -66 79 -65 735 -65 l593 0 30
30 c22 22 33 46 40 85 20 119 80 452 104 582 31 163 32 190 8 211 -17 15 -59
17 -400 17 -315 0 -383 -2 -395 -14 -14 -14 -19 -36 -54 -220 l-16 -89 22 -19
c21 -16 43 -18 192 -18 184 0 176 3 160 -60 -5 -19 -12 -52 -16 -72 l-6 -38
-319 0 c-306 0 -320 1 -330 19 -7 14 -5 48 9 123 11 57 37 200 58 318 31 178
41 219 60 238 l22 22 506 0 c529 0 538 1 573 43 14 17 52 213 52 268 0 72 27
69 -635 68 -579 0 -591 -1 -655 -22z M3926 9737 c-25 -21 -31 -36 -48 -128
-66 -360 -81 -442 -93 -514 -20 -110 -47 -264 -91 -500 -46 -254 -49 -284 -29
-310 15 -19 28 -20 195 -20 l180 0 29 30 c27 27 32 46 58 185 l29 155 185 3
c167 2 187 1 201 -15 8 -10 50 -85 92 -168 43 -82 86 -159 97 -170 19 -19 32
-20 241 -19 219 2 222 2 241 25 25 31 20 45 -64 190 -39 68 -79 140 -90 160
l-18 37 64 41 c82 54 140 119 181 206 43 93 109 443 102 544 -8 112 -71 204
-175 257 l-58 29 -600 3 -600 2 -29 -23z m958 -357 c14 -5 28 -20 32 -34 5
-23 -17 -181 -37 -257 -17 -68 -23 -69 -355 -69 l-296 0 7 52 c13 89 52 295
59 307 9 14 553 15 590 1z M7300 9733 c-28 -26 -32 -39 -64 -218 -19 -104 -73
-405 -121 -668 -47 -263 -85 -497 -83 -520 4 -61 22 -67 208 -67 137 0 159 2
188 20 41 25 46 39 72 192 11 67 25 133 30 146 l10 22 358 0 c215 0 382 4 418
11 137 25 275 133 339 263 34 69 51 139 91 371 31 179 20 263 -47 356 -26 38
-109 91 -165 107 -30 9 -204 12 -623 12 l-581 0 -30 -27z m954 -353 c46 -17
48 -37 22 -181 -36 -193 -4 -178 -369 -180 -164 0 -300 1 -302 3 -2 2 9 80 26
173 21 119 35 174 46 183 20 15 537 17 577 2z M11055 9400 c-12 -4 -27 -15
-34 -24 -10 -12 -51 -220 -111 -561 -5 -27 -27 -152 -50 -277 -44 -243 -44
-262 3 -273 13 -4 210 -5 438 -3 l414 3 65 31 c68 32 153 112 183 171 20 39
27 69 84 373 25 135 46 277 46 315 2 125 -61 209 -179 240 -47 12 -130 15
-449 14 -214 0 -399 -4 -410 -9z m678 -343 c-1 -26 -8 -82 -16 -125 -9 -42
-25 -133 -37 -202 -33 -185 -12 -171 -253 -168 l-202 3 1 45 c0 41 18 146 64
389 10 51 24 97 32 102 7 5 103 8 213 6 l200 -2 -2 -48z M12544 9401 c-103
-17 -220 -103 -267 -198 -27 -54 -36 -89 -72 -293 -14 -80 -32 -181 -41 -225
-24 -126 -28 -199 -14 -249 15 -56 68 -119 124 -149 40 -22 47 -22 446 -22
l405 0 65 31 c72 35 138 95 176 159 23 40 43 121 78 315 8 47 25 137 37 200
31 161 30 243 -2 306 -30 59 -96 108 -169 123 -55 12 -695 13 -766 2z m599
-344 c-2 -73 -73 -449 -89 -474 -14 -23 -16 -23 -279 -23 -227 0 -265 2 -273
15 -5 10 -1 54 9 113 10 53 30 162 44 241 14 80 31 153 36 163 9 17 27 18 282
16 l272 -3 -2 -48z M2755 8060 c-174 -24 -333 -113 -441 -248 -77 -97 -116
-189 -144 -337 -6 -33 -26 -143 -45 -245 -49 -269 -83 -451 -104 -565 -41
-218 -37 -305 20 -421 52 -105 138 -175 269 -220 52 -18 94 -19 685 -19 l630
0 33 24 33 23 25 -23 26 -24 283 0 284 0 35 34 c20 19 59 70 88 113 l52 78
495 -2 496 -3 30 -92 c16 -51 38 -101 48 -110 16 -16 43 -18 240 -20 260 -3
299 1 337 34 47 39 48 75 2 215 -22 68 -97 299 -167 513 -70 215 -137 422
-150 460 -13 39 -73 223 -134 410 -61 187 -118 350 -127 363 -8 12 -33 31 -54
42 -35 18 -59 20 -223 20 -201 0 -264 -11 -326 -57 -19 -15 -103 -132 -205
-287 -94 -143 -261 -397 -371 -563 -110 -166 -292 -443 -405 -614 -113 -171
-211 -316 -218 -322 -15 -12 -14 0 14 136 17 83 17 127 1 148 -33 43 -37 44
-586 49 -477 5 -525 6 -534 22 -12 18 -5 72 33 273 10 55 33 179 50 275 62
345 69 374 91 393 20 16 58 17 483 18 523 0 589 3 631 27 46 28 62 66 90 227
35 194 35 219 1 253 l-26 27 -593 1 c-325 1 -619 -2 -652 -6z m2418 -862 c8
-24 29 -88 46 -143 17 -55 46 -149 66 -210 19 -60 35 -113 35 -117 0 -5 -115
-8 -255 -8 -140 0 -255 2 -255 5 0 2 44 71 98 152 54 81 129 196 168 255 38
59 72 108 75 108 4 0 13 -19 22 -42z M11605 8060 c-194 -30 -361 -143 -474
-319 -52 -82 -80 -177 -126 -436 -20 -115 -48 -271 -62 -345 -13 -74 -29 -162
-34 -195 -5 -33 -17 -94 -26 -135 -8 -41 -16 -122 -16 -180 0 -92 3 -113 27
-171 31 -76 107 -167 170 -204 24 -14 69 -35 102 -47 l59 -23 680 0 c665 0
682 0 750 21 226 68 399 230 469 438 14 42 88 427 146 761 11 61 29 159 40
219 36 194 22 314 -50 425 -53 84 -116 132 -232 178 -39 15 -106 17 -708 19
-366 1 -687 -2 -715 -6z m1066 -541 c24 -24 24 -27 -17 -249 -14 -74 -32 -171
-39 -215 -14 -86 -73 -405 -80 -442 -3 -12 -15 -32 -27 -43 -21 -20 -33 -20
-498 -20 -454 0 -478 1 -494 19 -18 19 -12 54 95 636 56 307 56 305 93 323 13
7 187 11 484 11 456 1 462 1 483 -20z M6602 8034 c-40 -32 -51 -52 -62 -117
-5 -29 -25 -140 -45 -247 -20 -107 -43 -233 -51 -280 -65 -370 -182 -1015
-220 -1216 -16 -88 -12 -115 26 -149 21 -19 36 -20 255 -20 318 0 308 -9 363
291 20 109 41 205 45 212 6 9 70 12 261 12 228 0 254 -2 268 -17 8 -10 39 -65
68 -123 164 -322 175 -342 200 -355 29 -15 130 -19 412 -16 196 1 197 1 227
27 53 44 52 49 -147 393 -40 69 -72 130 -72 137 0 7 33 34 73 59 88 57 156
121 208 197 68 99 90 165 129 388 11 58 26 143 35 190 41 218 38 305 -13 412
-41 84 -93 142 -161 181 -123 70 -79 67 -966 67 l-800 0 -33 -26z m1319 -501
c49 -29 49 -32 0 -304 -11 -59 -27 -119 -37 -134 -36 -55 -39 -55 -474 -55
l-400 0 0 25 c0 13 4 46 10 72 5 26 16 89 25 138 35 193 47 250 57 263 8 9
100 12 400 12 353 0 393 -2 419 -17z M8915 8042 c-55 -34 -61 -49 -95 -247
-11 -66 -27 -156 -35 -200 -13 -68 -48 -261 -70 -385 -4 -19 -15 -80 -25 -135
-10 -55 -26 -140 -34 -190 -9 -49 -28 -153 -42 -230 -14 -77 -32 -176 -39
-220 -8 -44 -23 -129 -34 -190 -27 -146 -27 -180 3 -210 31 -31 89 -37 311
-33 273 5 266 -3 330 373 9 55 21 110 26 123 l9 22 253 0 c229 0 255 -2 269
-17 16 -19 83 -144 187 -349 51 -102 67 -124 94 -135 46 -20 579 -14 618 6 44
23 52 78 21 130 -10 17 -31 53 -46 80 -16 28 -64 111 -107 186 -44 75 -79 141
-79 147 0 5 33 30 73 55 40 25 102 76 138 114 124 129 153 200 214 538 56 307
61 406 26 499 -50 134 -147 225 -283 267 -60 18 -104 19 -858 19 -754 0 -797
-1 -825 -18z m1327 -522 c24 -30 22 -78 -12 -262 -25 -137 -40 -172 -82 -198
-32 -19 -51 -20 -435 -20 -316 0 -403 3 -403 13 0 34 84 474 93 485 8 10 95
12 414 10 l405 -3 20 -25z"/>
</g>
</svg>
