<svg xmlns="http://www.w3.org/2000/svg" viewBox="0 0 1200 430" role="img" aria-labelledby="title"><title>Veste Custom Wear</title><g transform="translate(55 54) rotate(-8 160 160)"><path d="M30 30H300V300H30Z" fill="#f43d27"/><path d="M235 105C205 70 145 66 104 96 58 130 55 207 96 250 130 285 191 287 230 252L198 211C178 230 144 231 124 211 103 190 103 151 125 132 147 112 180 114 201 134Z" fill="#202020"/><circle cx="63" cy="266" r="17" fill="#202020"/></g><text x="380" y="268" fill="#dedede" font-family="Arial Black,Impact,sans-serif" font-size="235" font-weight="900" letter-spacing="-10">VESTE</text><rect x="397" y="295" width="695" height="58" fill="#3b3738"/><text x="430" y="337" fill="#dedede" font-family="Arial,Helvetica,sans-serif" font-size="34" font-weight="700" letter-spacing="18">CUSTOM WEAR</text></svg>